<?xml version="1.0" encoding="UTF-8" standalone="no"?>
<!DOCTYPE svg PUBLIC "-//W3C//DTD SVG 1.1//EN"
 "http://www.w3.org/Graphics/SVG/1.1/DTD/svg11.dtd">
<!-- Generated by graphviz version 8.1.0 (20230707.2238)
 -->
<!-- Title: snakemake_dag Pages: 1 -->
<svg width="109pt" height="116pt"
 viewBox="0.00 0.00 108.75 116.00" xmlns="http://www.w3.org/2000/svg" xmlns:xlink="http://www.w3.org/1999/xlink">
<g id="graph0" class="graph" transform="scale(1 1) rotate(0) translate(4 112)">
<title>snakemake_dag</title>
<polygon fill="white" stroke="none" points="-4,4 -4,-112 104.75,-112 104.75,4 -4,4"/>
<!-- 0 -->
<g id="node1" class="node">
<title>0</title>
<path fill="none" stroke="#59d856" stroke-width="2" stroke-dasharray="5,2" d="M65.38,-36C65.38,-36 35.38,-36 35.38,-36 29.38,-36 23.38,-30 23.38,-24 23.38,-24 23.38,-12 23.38,-12 23.38,-6 29.38,0 35.38,0 35.38,0 65.38,0 65.38,0 71.38,0 77.38,-6 77.38,-12 77.38,-12 77.38,-24 77.38,-24 77.38,-30 71.38,-36 65.38,-36"/>
<text text-anchor="middle" x="50.38" y="-14.88" font-family="sans" font-size="10.00">all</text>
</g>
<!-- 1 -->
<g id="node2" class="node">
<title>1</title>
<path fill="none" stroke="#d85656" stroke-width="2" stroke-dasharray="5,2" d="M88.75,-108C88.75,-108 12,-108 12,-108 6,-108 0,-102 0,-96 0,-96 0,-84 0,-84 0,-78 6,-72 12,-72 12,-72 88.75,-72 88.75,-72 94.75,-72 100.75,-78 100.75,-84 100.75,-84 100.75,-96 100.75,-96 100.75,-102 94.75,-108 88.75,-108"/>
<text text-anchor="middle" x="50.38" y="-86.88" font-family="sans" font-size="10.00">create_log_folder</text>
</g>
<!-- 1&#45;&gt;0 -->
<g id="edge1" class="edge">
<title>1&#45;&gt;0</title>
<path fill="none" stroke="grey" stroke-width="2" d="M50.38,-71.34C50.38,-64.75 50.38,-57.08 50.38,-49.67"/>
<polygon fill="grey" stroke="grey" stroke-width="2" points="53.88,-49.9 50.38,-39.9 46.88,-49.9 53.88,-49.9"/>
</g>
</g>
</svg>
